<svg width="400" height="400" viewBox="0 0 400 400" fill="none" xmlns="http://www.w3.org/2000/svg">
<rect x="302" y="98" width="204" height="204" rx="102" transform="rotate(90 302 98)" fill="black"/>
<g clip-path="url(#clip0_145054_1753)">
<mask id="mask0_145054_1753" style="mask-type:alpha" maskUnits="userSpaceOnUse" x="0" y="101" width="117" height="198">
<path d="M98.334 259.421L116.334 299C114.814 298.189 112.184 295.745 108.744 292.548C100.872 285.231 88.7592 273.973 76.0008 269.334C60.5428 263.712 28.5132 263.068 8.45263 262.804C4.72126 262.755 1.99215 262.719 0.667789 262.667L0.667795 137.667C1.99216 137.615 4.72126 137.579 8.45263 137.53C28.5132 137.266 60.5428 136.622 76.0008 131.001C88.7592 126.361 100.872 115.103 108.744 107.787C112.184 104.589 114.814 102.145 116.334 101.334L98.334 141.246C85.5939 157.538 78.0007 178.049 78.0007 200.334C78.0007 222.618 85.5939 243.13 98.334 259.421Z" fill="url(#paint0_radial_145054_1753)"/>
</mask>
<g mask="url(#mask0_145054_1753)">
<path d="M392.215 262.804C395.946 262.755 398.675 262.719 400 262.667L400 137.667C398.675 137.615 395.946 137.579 392.215 137.53C372.154 137.266 323.125 136.621 307.667 131C294.908 126.361 282.796 115.103 274.924 107.786C271.484 104.589 268.854 102.145 267.334 101.334L267.334 140.822C280.274 157.181 288 177.855 288 200.333C288 222.812 280.274 243.486 267.334 259.845L267.334 299C268.854 298.189 271.484 295.744 274.924 292.547C282.796 285.231 294.908 273.973 307.667 269.333C323.125 263.712 372.154 263.068 392.215 262.804Z" fill="#CBCBCB"/>
<path d="M116.334 259.421L116.334 299C114.814 298.189 112.184 295.744 108.744 292.547C100.872 285.231 88.7593 273.973 76.0009 269.333C60.5429 263.712 11.5133 263.067 -8.54731 262.804C-12.2787 262.755 -15.0078 262.719 -16.3322 262.667L-16.3322 137.667C-15.0078 137.615 -12.2787 137.579 -8.54731 137.53C11.5133 137.266 60.5429 136.621 76.0009 131C88.7593 126.361 100.872 115.103 108.744 107.786C112.184 104.589 114.814 102.145 116.334 101.334L116.334 141.246C103.594 157.537 96.0008 178.049 96.0008 200.333C96.0008 222.618 103.594 243.129 116.334 259.421Z" fill="#CBCBCB"/>
<path d="M392.215 262.804C395.946 262.755 398.675 262.719 400 262.667L400 137.667C398.675 137.615 395.946 137.579 392.215 137.53C372.154 137.266 323.125 136.621 307.667 131C294.908 126.361 282.796 115.103 274.924 107.786C271.484 104.589 268.854 102.145 267.334 101.334L267.334 140.822C280.274 157.181 288 177.855 288 200.333C288 222.812 280.274 243.486 267.334 259.845L267.334 299C268.854 298.189 271.484 295.744 274.924 292.547C282.796 285.231 294.908 273.973 307.667 269.333C323.125 263.712 372.154 263.068 392.215 262.804Z" fill="#CBCBCB"/>
<path d="M116.334 259.421L116.334 299C114.814 298.189 112.184 295.744 108.744 292.547C100.872 285.231 88.7593 273.973 76.0009 269.333C60.5429 263.712 11.5133 263.067 -8.54731 262.804C-12.2787 262.755 -15.0078 262.719 -16.3322 262.667L-16.3322 137.667C-15.0078 137.615 -12.2787 137.579 -8.54731 137.53C11.5133 137.266 60.5429 136.621 76.0009 131C88.7593 126.361 100.872 115.103 108.744 107.786C112.184 104.589 114.814 102.145 116.334 101.334L116.334 141.246C103.594 157.537 96.0008 178.049 96.0008 200.333C96.0008 222.618 103.594 243.129 116.334 259.421Z" fill="#CBCBCB"/>
<path d="M392.215 262.804C395.946 262.755 398.675 262.719 400 262.667L400 137.667C398.675 137.615 395.946 137.579 392.215 137.53C372.154 137.266 323.125 136.621 307.667 131C294.908 126.361 282.796 115.103 274.924 107.786C271.484 104.589 268.854 102.145 267.334 101.334L267.334 140.822C280.274 157.181 288 177.855 288 200.333C288 222.812 280.274 243.486 267.334 259.845L267.334 299C268.854 298.189 271.484 295.744 274.924 292.547C282.796 285.231 294.908 273.973 307.667 269.333C323.125 263.712 372.154 263.068 392.215 262.804Z" fill="#CBCBCB"/>
<path d="M116.334 259.421L116.334 299C114.814 298.189 112.184 295.744 108.744 292.547C100.872 285.231 88.7593 273.973 76.0009 269.333C60.5429 263.712 11.5133 263.068 -8.54731 262.804C-12.2787 262.755 -15.0078 262.719 -16.3322 262.667L-16.3322 137.667C-15.0078 137.615 -12.2787 137.579 -8.54731 137.53C11.5133 137.266 60.5429 136.621 76.0009 131C88.7593 126.361 100.872 115.103 108.744 107.786C112.184 104.589 114.814 102.145 116.334 101.334L116.334 141.246C103.594 157.537 96.0008 178.049 96.0008 200.333C96.0008 222.618 103.594 243.129 116.334 259.421Z" fill="#CBCBCB"/>
<g opacity="0.2" filter="url(#filter0_f_145054_1753)" style="mix-blend-mode:multiply">
<path d="M400 262.667C398.675 262.719 395.946 262.755 392.215 262.804C372.154 263.068 323.125 263.712 307.667 269.333C294.908 273.973 282.796 285.231 274.924 292.547C271.484 295.744 268.854 298.189 267.334 299L267.334 259.845M116.334 259.421L116.334 299C114.814 298.189 112.184 295.744 108.744 292.547C100.872 285.231 88.7593 273.973 76.0009 269.333C60.5429 263.712 11.5133 263.067 -8.54731 262.804C-12.2787 262.755 -15.0078 262.719 -16.3322 262.667" stroke="#CBCBCB" stroke-width="2"/>
</g>
<g opacity="0.2" filter="url(#filter1_f_145054_1753)" style="mix-blend-mode:lighten">
<path d="M400 137.667C398.675 137.614 395.946 137.578 392.215 137.529C372.154 137.266 323.125 136.621 307.667 131C294.908 126.361 282.796 115.102 274.924 107.786C271.484 104.589 268.854 102.144 267.334 101.333L267.334 140.822M-16.3322 137.667C-15.0078 137.614 -12.2787 137.578 -8.54731 137.529C11.5133 137.266 60.5429 136.621 76.0009 131C88.7593 126.361 100.872 115.102 108.744 107.786C112.184 104.589 114.814 102.144 116.334 101.333L116.334 141.245" stroke="white" stroke-width="3"/>
</g>
</g>
<mask id="mask1_145054_1753" style="mask-type:alpha" maskUnits="userSpaceOnUse" x="283" y="101" width="117" height="198">
<path d="M397.214 262.804C377.154 263.068 339.124 263.712 323.666 269.334C310.908 273.973 298.795 285.231 290.923 292.548C287.484 295.745 284.854 298.189 283.333 299L303.333 259.845C316.274 243.486 324 222.812 324 200.334C324 177.855 316.274 157.181 303.333 140.822L283.333 101.334C284.854 102.145 287.484 104.589 290.923 107.787C298.795 115.103 310.908 126.361 323.666 131.001C339.124 136.622 377.154 137.266 397.214 137.53C400.946 137.579 398.176 137.615 399.5 137.667L399.5 262.667C398.176 262.719 400.946 262.755 397.214 262.804Z" fill="url(#paint1_radial_145054_1753)"/>
</mask>
<g mask="url(#mask1_145054_1753)">
<path d="M408.214 262.804C411.946 262.755 414.675 262.719 415.999 262.667L415.999 137.667C414.675 137.615 411.946 137.579 408.214 137.53C388.154 137.266 339.124 136.622 323.666 131.001C310.908 126.361 298.795 115.103 290.923 107.787C287.483 104.589 284.853 102.145 283.333 101.334L283.333 140.822C296.274 157.181 303.999 177.855 303.999 200.334C303.999 222.812 296.274 243.486 283.333 259.845L283.333 299C284.853 298.189 287.483 295.745 290.923 292.548C298.795 285.231 310.908 273.973 323.666 269.334C339.124 263.712 388.154 263.068 408.214 262.804Z" fill="#CBCBCB"/>
<path d="M132.333 259.421L132.333 299C130.813 298.189 128.183 295.745 124.743 292.548C116.871 285.231 104.759 273.973 92.0001 269.333C76.5421 263.712 27.5126 263.068 7.45195 262.804C3.7206 262.755 0.991474 262.719 -0.332897 262.667L-0.332892 137.667C0.99148 137.615 3.72061 137.579 7.45196 137.53C27.5126 137.266 76.5421 136.622 92.0001 131.001C104.759 126.361 116.871 115.103 124.743 107.787C128.183 104.589 130.813 102.145 132.333 101.334L132.333 141.246C119.593 157.538 112 178.049 112 200.334C112 222.618 119.593 243.13 132.333 259.421Z" fill="#CBCBCB"/>
<path d="M408.214 262.804C411.946 262.755 414.675 262.719 415.999 262.667L415.999 137.667C414.675 137.615 411.946 137.579 408.214 137.53C388.154 137.266 339.124 136.622 323.666 131.001C310.908 126.361 298.795 115.103 290.923 107.787C287.483 104.589 284.853 102.145 283.333 101.334L283.333 140.822C296.274 157.181 303.999 177.855 303.999 200.334C303.999 222.812 296.274 243.486 283.333 259.845L283.333 299C284.853 298.189 287.483 295.745 290.923 292.548C298.795 285.231 310.908 273.973 323.666 269.334C339.124 263.712 388.154 263.068 408.214 262.804Z" fill="#CBCBCB"/>
<path d="M132.333 259.421L132.333 299C130.813 298.189 128.183 295.745 124.743 292.548C116.871 285.231 104.759 273.973 92.0001 269.333C76.5421 263.712 27.5126 263.068 7.45195 262.804C3.7206 262.755 0.991474 262.719 -0.332897 262.667L-0.332892 137.667C0.99148 137.615 3.72061 137.579 7.45196 137.53C27.5126 137.266 76.5421 136.622 92.0001 131.001C104.759 126.361 116.871 115.103 124.743 107.787C128.183 104.589 130.813 102.145 132.333 101.334L132.333 141.246C119.593 157.538 112 178.049 112 200.334C112 222.618 119.593 243.13 132.333 259.421Z" fill="#CBCBCB"/>
<path d="M398.214 262.804C401.946 262.755 404.675 262.719 405.999 262.667L405.999 137.667C404.675 137.615 401.946 137.579 398.214 137.53C378.154 137.266 339.124 136.622 323.666 131.001C310.908 126.361 298.795 115.103 290.923 107.787C287.483 104.589 284.853 102.145 283.333 101.334L283.333 140.822C296.274 157.181 303.999 177.855 303.999 200.334C303.999 222.812 296.274 243.486 283.333 259.845L283.333 299C284.853 298.189 287.483 295.745 290.923 292.548C298.795 285.231 310.908 273.973 323.666 269.334C339.124 263.712 378.154 263.068 398.214 262.804Z" fill="#CBCBCB"/>
<path d="M132.333 259.421L132.333 299C130.813 298.189 128.183 295.745 124.743 292.548C116.871 285.231 104.759 273.973 92.0001 269.333C76.5421 263.712 27.5126 263.068 7.45195 262.804C3.7206 262.755 0.991474 262.719 -0.332897 262.667L-0.332892 137.667C0.99148 137.615 3.72061 137.579 7.45196 137.53C27.5126 137.266 76.5421 136.622 92.0001 131.001C104.759 126.361 116.871 115.103 124.743 107.787C128.183 104.589 130.813 102.145 132.333 101.334L132.333 141.246C119.593 157.538 112 178.049 112 200.334C112 222.618 119.593 243.13 132.333 259.421Z" fill="#CBCBCB"/>
<g opacity="0.2" filter="url(#filter2_f_145054_1753)" style="mix-blend-mode:multiply">
<path d="M415.999 262.667C414.675 262.719 411.946 262.755 408.214 262.804C388.154 263.068 339.124 263.712 323.666 269.334C310.908 273.973 298.795 285.231 290.923 292.548C287.483 295.745 284.853 298.189 283.333 299L283.333 259.845M132.333 259.421L132.333 299C130.813 298.189 128.183 295.745 124.743 292.548C116.871 285.231 104.759 273.973 92.0001 269.333C76.5421 263.712 27.5126 263.068 7.45196 262.804C3.72061 262.755 0.991488 262.719 -0.332889 262.667" stroke="#CBCBCB" stroke-width="2"/>
</g>
<g opacity="0.2" filter="url(#filter3_f_145054_1753)" style="mix-blend-mode:lighten">
<path d="M415.999 137.667C414.675 137.615 411.946 137.579 408.214 137.53C388.154 137.266 339.124 136.621 323.666 131C310.908 126.361 298.795 115.103 290.923 107.786C287.483 104.589 284.853 102.145 283.333 101.334L283.333 140.822M-0.33289 137.667C0.991487 137.615 3.7206 137.579 7.45196 137.53C27.5126 137.266 76.5421 136.621 92.0001 131C104.759 126.361 116.871 115.103 124.743 107.786C128.183 104.589 130.813 102.145 132.333 101.334L132.333 141.246" stroke="white" stroke-width="3"/>
</g>
</g>
<path fill-rule="evenodd" clip-rule="evenodd" d="M70 200C70 271.797 128.203 330 200 330C271.797 330 330 271.797 330 200C330 128.203 271.797 69.9999 200 69.9999C128.203 69.9999 70 128.203 70 200ZM98.0001 200C98.0001 256.333 143.667 302 200 302C256.333 302 302 256.333 302 200C302 143.667 256.333 97.9999 200 97.9999C143.667 97.9999 98.0001 143.667 98.0001 200Z" fill="black"/>
<g clip-path="url(#clip1_145054_1753)">
<g filter="url(#filter4_f_145054_1753)">
<circle cx="200" cy="200" r="135" transform="rotate(90 200 200)" fill="url(#paint2_radial_145054_1753)"/>
</g>
<g filter="url(#filter5_f_145054_1753)">
<circle cx="200" cy="200" r="135" transform="rotate(90 200 200)" fill="url(#paint3_radial_145054_1753)"/>
</g>
<g opacity="0.3" filter="url(#filter6_f_145054_1753)">
<path fill-rule="evenodd" clip-rule="evenodd" d="M207.994 300.407C199.564 304.048 199.498 316.598 208.681 316.598C271.265 316.598 322 268.695 322 209.604C322 185.476 313.541 163.214 299.272 145.316C293.602 138.205 283.646 145.133 285.233 154.088C286.606 161.833 287.322 169.813 287.322 177.964C287.322 233.035 254.604 280.278 207.994 300.407Z" fill="url(#paint4_radial_145054_1753)"/>
</g>
<g opacity="0.2" filter="url(#filter7_f_145054_1753)">
<path fill-rule="evenodd" clip-rule="evenodd" d="M214.354 305.845C211.521 306.951 211.959 311 215 311C270.228 311 315 261.626 315 200.72C315 188.949 313.328 177.609 310.231 166.973C309.267 163.661 304.736 164.81 304.82 168.258C304.849 169.464 304.864 170.673 304.864 171.887C304.864 232.993 267.29 285.175 214.354 305.845Z" fill="url(#paint5_radial_145054_1753)"/>
</g>
<g opacity="0.15" filter="url(#filter8_f_145054_1753)">
<path fill-rule="evenodd" clip-rule="evenodd" d="M304.428 127.328C280.908 93.8669 242.008 71.9999 198 71.9999C126.203 71.9999 68 130.203 68 202C68 230.504 77.1735 256.865 92.7292 278.292C82.6967 259.766 77 238.548 77 216C77 143.651 135.651 85.0003 208 85.0003C246.148 85.0003 280.487 101.306 304.428 127.328Z" fill="url(#paint6_radial_145054_1753)"/>
</g>
</g>
</g>
<defs>
<filter id="filter0_f_145054_1753" x="-19.7049" y="256.088" width="423.077" height="47.912" filterUnits="userSpaceOnUse" color-interpolation-filters="sRGB">
<feFlood flood-opacity="0" result="BackgroundImageFix"/>
<feBlend mode="normal" in="SourceGraphic" in2="BackgroundImageFix" result="shape"/>
<feGaussianBlur stdDeviation="1.66667" result="effect1_foregroundBlur_145054_1753"/>
</filter>
<filter id="filter1_f_145054_1753" x="-19.7247" y="95.5001" width="423.117" height="49.0787" filterUnits="userSpaceOnUse" color-interpolation-filters="sRGB">
<feFlood flood-opacity="0" result="BackgroundImageFix"/>
<feBlend mode="normal" in="SourceGraphic" in2="BackgroundImageFix" result="shape"/>
<feGaussianBlur stdDeviation="1.66667" result="effect1_foregroundBlur_145054_1753"/>
</filter>
<filter id="filter2_f_145054_1753" x="-3.70563" y="256.088" width="423.077" height="47.912" filterUnits="userSpaceOnUse" color-interpolation-filters="sRGB">
<feFlood flood-opacity="0" result="BackgroundImageFix"/>
<feBlend mode="normal" in="SourceGraphic" in2="BackgroundImageFix" result="shape"/>
<feGaussianBlur stdDeviation="1.66667" result="effect1_foregroundBlur_145054_1753"/>
</filter>
<filter id="filter3_f_145054_1753" x="-3.72541" y="95.5004" width="423.117" height="49.0787" filterUnits="userSpaceOnUse" color-interpolation-filters="sRGB">
<feFlood flood-opacity="0" result="BackgroundImageFix"/>
<feBlend mode="normal" in="SourceGraphic" in2="BackgroundImageFix" result="shape"/>
<feGaussianBlur stdDeviation="1.66667" result="effect1_foregroundBlur_145054_1753"/>
</filter>
<filter id="filter4_f_145054_1753" x="55.1" y="55.0999" width="289.8" height="289.8" filterUnits="userSpaceOnUse" color-interpolation-filters="sRGB">
<feFlood flood-opacity="0" result="BackgroundImageFix"/>
<feBlend mode="normal" in="SourceGraphic" in2="BackgroundImageFix" result="shape"/>
<feGaussianBlur stdDeviation="4.95" result="effect1_foregroundBlur_145054_1753"/>
</filter>
<filter id="filter5_f_145054_1753" x="61" y="60.9999" width="278" height="278" filterUnits="userSpaceOnUse" color-interpolation-filters="sRGB">
<feFlood flood-opacity="0" result="BackgroundImageFix"/>
<feBlend mode="normal" in="SourceGraphic" in2="BackgroundImageFix" result="shape"/>
<feGaussianBlur stdDeviation="2" result="effect1_foregroundBlur_145054_1753"/>
</filter>
<filter id="filter6_f_145054_1753" x="194.131" y="134.778" width="135.469" height="189.42" filterUnits="userSpaceOnUse" color-interpolation-filters="sRGB">
<feFlood flood-opacity="0" result="BackgroundImageFix"/>
<feBlend mode="normal" in="SourceGraphic" in2="BackgroundImageFix" result="shape"/>
<feGaussianBlur stdDeviation="3.8" result="effect1_foregroundBlur_145054_1753"/>
</filter>
<filter id="filter7_f_145054_1753" x="196.256" y="148.8" width="134.944" height="178.4" filterUnits="userSpaceOnUse" color-interpolation-filters="sRGB">
<feFlood flood-opacity="0" result="BackgroundImageFix"/>
<feBlend mode="normal" in="SourceGraphic" in2="BackgroundImageFix" result="shape"/>
<feGaussianBlur stdDeviation="8.1" result="effect1_foregroundBlur_145054_1753"/>
</filter>
<filter id="filter8_f_145054_1753" x="65.3334" y="69.3332" width="241.762" height="211.625" filterUnits="userSpaceOnUse" color-interpolation-filters="sRGB">
<feFlood flood-opacity="0" result="BackgroundImageFix"/>
<feBlend mode="normal" in="SourceGraphic" in2="BackgroundImageFix" result="shape"/>
<feGaussianBlur stdDeviation="1.33333" result="effect1_foregroundBlur_145054_1753"/>
</filter>
<radialGradient id="paint0_radial_145054_1753" cx="0" cy="0" r="1" gradientUnits="userSpaceOnUse" gradientTransform="translate(204 200.334) rotate(-180) scale(203 231.941)">
<stop/>
<stop offset="0.671882"/>
<stop offset="1" stop-opacity="0"/>
</radialGradient>
<radialGradient id="paint1_radial_145054_1753" cx="0" cy="0" r="1" gradientUnits="userSpaceOnUse" gradientTransform="translate(197.5 200.167) scale(201.5 230.227)">
<stop/>
<stop offset="0.671882"/>
<stop offset="1" stop-opacity="0"/>
</radialGradient>
<radialGradient id="paint2_radial_145054_1753" cx="0" cy="0" r="1" gradientUnits="userSpaceOnUse" gradientTransform="translate(200 200) rotate(-158.58) scale(139.646)">
<stop stop-opacity="0"/>
<stop offset="0.860192" stop-opacity="0"/>
<stop offset="1" stop-color="#838383"/>
</radialGradient>
<radialGradient id="paint3_radial_145054_1753" cx="0" cy="0" r="1" gradientUnits="userSpaceOnUse" gradientTransform="translate(211 200) rotate(-172.153) scale(157.475)">
<stop stop-opacity="0"/>
<stop offset="0.745769" stop-opacity="0"/>
<stop offset="1" stop-color="#9D9D9D"/>
</radialGradient>
<radialGradient id="paint4_radial_145054_1753" cx="0" cy="0" r="1" gradientTransform="matrix(-262.742 336.979 -121.19 -75.1109 466.943 71.5143)" gradientUnits="userSpaceOnUse">
<stop stop-color="white"/>
<stop offset="1" stop-color="white" stop-opacity="0"/>
</radialGradient>
<radialGradient id="paint5_radial_145054_1753" cx="0" cy="0" r="1" gradientTransform="matrix(-244.042 182.369 -73.6935 -121.64 375.79 185.228)" gradientUnits="userSpaceOnUse">
<stop stop-color="white"/>
<stop offset="1" stop-color="white" stop-opacity="0"/>
</radialGradient>
<radialGradient id="paint6_radial_145054_1753" cx="0" cy="0" r="1" gradientTransform="matrix(106.501 97.9989 -78.1213 88.0462 72.0001 65.9999)" gradientUnits="userSpaceOnUse">
<stop stop-color="white"/>
<stop offset="1" stop-color="white" stop-opacity="0"/>
</radialGradient>
<clipPath id="clip0_145054_1753">
<rect width="400" height="400" fill="white" transform="translate(400 1.74846e-05) rotate(90)"/>
</clipPath>
<clipPath id="clip1_145054_1753">
<rect x="330" y="69.9999" width="260" height="260" rx="130" transform="rotate(90 330 69.9999)" fill="white"/>
</clipPath>
</defs>
</svg>
